<?xml version="1.0" encoding="UTF-8"?>
<!-- Generated by Pixelmator Pro 3.6.12 -->
<svg width="1000" height="1000" viewBox="0 0 1000 1000" xmlns="http://www.w3.org/2000/svg">
    <path id="Shape" fill="#ffffff" fill-rule="evenodd" stroke="none" d="M 503.5 968.54364 C 480.049805 968.835632 471.428253 968.585632 464.010803 967.39856 C 458.791748 966.563232 453.432251 965.34436 452.10083 964.689941 C 450.060089 963.686829 447.302979 957.062805 434.5401 922.5 L 411.11377 858.5 C 406.556274 845.849976 399.953278 828.621582 396.440491 820.2146 C 392.927704 811.807678 386.575165 797.898132 382.323761 789.304504 C 378.072357 780.710815 371.483063 768.239258 367.680908 761.589844 L 354.246918 739 L 339.344116 716.175659 L 310.758148 676.105347 C 308.792267 672.803345 308.014008 670.137329 308.008148 666.685059 C 308.00061 662.231812 308.364716 661.51825 312.855713 657.185059 C 315.526367 654.608276 319.107941 651.697937 320.814789 650.717651 C 323.918121 648.935303 323.918121 648.935303 335.709076 659.911804 L 359 680.45459 C 365.325012 685.716064 375.450012 693.573059 381.5 697.914551 C 387.549988 702.255981 396.774994 708.404053 402 711.576904 L 421.699341 722.577209 C 427.30899 725.45459 436.679962 729.678101 442.523712 731.962891 C 448.367493 734.247681 453.636719 735.954468 454.233154 735.755615 C 454.82959 735.556763 453.333618 733.787231 450.908783 731.82312 C 448.483948 729.859131 443.350006 726.480042 439.5 724.314087 L 417 710.031128 C 408.475006 704.341431 394.75 694.610229 386.5 688.406311 C 378.25 682.202393 367.225006 673.452515 362 668.96228 L 336.137085 645.649048 C 327.137482 637.317078 319.272858 630.5 318.660126 630.5 C 318.047424 630.5 312.913391 636.575012 307.251129 644 L 287.584839 668.5 C 282.430634 674.549988 273.103027 684.464966 266.856781 690.533203 C 260.610565 696.601501 251.675003 704.723145 247 708.581238 L 229.815872 721.866699 C 225.039612 725.315674 216.264618 731.072144 210.315872 734.658875 C 204.367142 738.245605 193.649994 744.054443 186.5 747.567383 C 179.350006 751.080322 169 755.71991 163.5 757.877563 L 144.249969 764.818481 L 127.890182 769.66803 C 120.780411 771.499512 120.780411 771.499512 117.843643 767.999756 L 109.069443 755.5 L 96.051697 734 C 92.102516 727.125 85.548843 714.75 81.487976 706.5 L 69.495796 680.681274 L 59.877953 656.181274 L 50.544254 628 C 48.165703 620.025024 44.609135 606.525024 42.640766 598 C 40.672401 589.474976 37.938297 575.828735 36.564987 567.675049 L 32.784027 540.175049 C 32.071018 533.136719 31.5 515.048218 31.5 499.5 C 31.5 483.660278 32.069969 465.854187 32.812401 458.5 C 33.534225 451.349976 35.260178 438.75 36.647858 430.5 C 38.035538 422.25 41.37011 406.724976 44.058018 396 C 46.745922 385.275024 51.366554 369.075012 54.326084 360 C 57.285614 350.924988 62.258068 337.028687 65.375977 329.119324 C 68.493889 321.2099 73.847305 308.836121 77.272453 301.621948 L 89.734749 276.74762 L 101.589638 255.744995 L 114.243156 236.019165 L 128.825134 215.519165 L 143.895523 196.5 L 161.753906 176.333923 C 167.439011 170.192566 177.45665 160.342529 184.01532 154.444946 C 190.573975 148.547363 200.791122 139.932251 206.720078 135.300293 C 212.649033 130.668335 225.149994 121.774048 234.5 115.535278 C 243.850006 109.296509 257.866791 100.552002 265.648438 96.103088 C 273.430084 91.654114 286.986603 84.485046 295.774048 80.171753 C 304.561493 75.858459 317.99469 69.753784 325.62561 66.605835 C 333.256531 63.457825 346.745972 58.440369 355.602142 55.455872 C 364.458313 52.471375 379.533325 48.01886 389.102142 45.561462 C 398.670959 43.104004 413.700012 39.730225 422.5 38.064087 L 450.5 33.531982 L 475.395203 31.014587 C 482.487579 30.456604 493.737579 30.002258 500.395203 30.005005 C 507.052856 30.007751 520.150024 30.674438 529.5 31.486511 L 557.5 34.549683 L 585 39.538452 C 594.075012 41.409546 608.047546 44.738831 616.050171 46.936829 C 624.052734 49.134827 638.644531 53.684814 648.47644 57.047852 C 658.308289 60.410889 672.575806 65.824402 680.181946 69.07782 C 687.788147 72.331299 700.871338 78.421265 709.255676 82.611145 L 735 96.224854 L 758.5 110.746521 L 782.546265 127.478699 L 805.546265 145.706909 L 827 164.732483 C 832.224976 169.684509 841 178.799011 846.5 184.986877 L 864.832703 206.868835 C 869.41571 212.715942 878.25708 225.150024 884.480286 234.5 C 890.70343 243.849976 899.517578 258.005432 904.067322 265.956604 C 908.617004 273.907715 916.097595 288.162354 920.690918 297.633667 C 925.28418 307.104919 931.447449 320.849487 934.387024 328.177063 L 944.767883 356.5 C 947.537781 364.75 951.415039 377.575012 953.384094 385 L 959.94342 412.562439 C 961.582031 420.296753 964.054565 434.471741 965.437927 444.062439 C 966.821289 453.653076 968.462341 469.996704 969.084778 480.381592 C 969.932617 494.528778 969.927307 504.182404 969.063538 518.881592 C 968.429443 529.671753 967.002991 545.025024 965.893616 553 L 960.943848 582 L 953.972168 612 C 951.750671 620.525024 947.43689 634.924988 944.385986 644 C 941.335083 653.075012 936.374329 666.575012 933.362122 674 C 930.349854 681.424988 924.127686 695.150024 919.535034 704.5 C 914.942383 713.849976 907.949158 727.125 903.994507 734 L 888.26593 759.5 L 871.193115 784 L 853.238647 806.827393 L 837.159302 825.216675 C 833.496704 829.100708 825.242981 836.912659 818.817749 842.576538 L 795.123596 862.442383 L 773.149414 879.040771 L 754.843567 891.040405 C 747.506775 895.409851 746.359619 895.819092 745.33667 894.432129 L 741.887512 887.177429 C 740.630249 884.05481 738.072388 878.874451 736.203308 875.665405 C 734.33429 872.45636 729.921326 866.773926 726.396729 863.03772 C 722.872192 859.301514 716.50354 853.981384 712.244263 851.215271 C 707.984924 848.449097 683.125 834.166382 657 819.47583 L 599.873108 787.724609 C 591.110046 783.135864 589.51001 782.640869 582.040405 782.208496 C 575.880493 781.851868 572.333191 782.187988 567.812988 783.556641 C 564.50116 784.559326 561.579712 785.931641 561.320923 786.60614 C 561.062073 787.28064 562.430969 793.832642 564.362976 801.16626 C 566.294922 808.499817 570.136597 821.038818 572.900085 829.030762 C 575.663574 837.022705 581.473816 852.097656 585.811829 862.530762 L 621.699036 950.043274 C 622.037109 951.267639 619.631409 952.18573 610.055908 954.486572 C 601.604797 956.517212 597.670959 957.070984 596.933655 956.333618 C 596.354492 955.754517 593.259583 947.905029 590.05603 938.89032 L 542.703857 804.179077 C 541.608887 801.80249 539.63446 799.151367 538.316162 798.287598 C 536.7547 797.264526 532.709167 796.553772 526.709656 796.248596 C 520.817017 795.948853 514.291199 796.338745 508.59079 797.331177 C 503.322937 798.248291 497.111084 800.147644 493.392395 801.978394 C 489.933319 803.681274 484.717438 807.43634 481.801575 810.322937 L 469.574677 823.399109 C 462.649353 831.226929 462.649353 831.226929 465.074677 833.076416 L 491.423401 850.182495 C 497.069672 853.880005 505.311981 860.524597 509.875916 865.057983 C 514.412476 869.564148 520.387939 876.457031 523.154785 880.375488 C 525.92157 884.293945 530.11554 891.325012 532.474731 896 C 534.833862 900.674988 538.401367 909.784607 540.402527 916.243591 L 549.421692 945.085876 C 554.802368 962.184631 554.802368 962.184631 551.240112 963.673035 C 549.280823 964.491699 544.487793 965.838379 540.588928 966.665771 C 535.472046 967.751587 525.154358 968.273987 503.5 968.54364 Z M 648 659.877075 C 655.030762 659.934143 661.960876 659.390259 665.832214 658.477661 C 669.314941 657.656616 674.417114 656.015747 677.170349 654.831421 C 679.923523 653.646973 683.089355 651.938477 684.205505 651.034668 C 686.139099 649.468933 685.792908 649.33313 676.867432 648.15625 C 671.715332 647.476929 662.424438 645.78833 656.220947 644.40387 L 596.5 627.531128 C 586.313843 624.427612 580.088135 623.047363 577.100647 623.230469 C 573.636169 623.442749 572.265503 624.085754 570.650635 626.256348 C 569.492371 627.813232 568.599976 630.546509 568.599976 632.537109 C 568.599976 635.120972 569.387268 636.831787 571.549988 638.947754 C 573.597351 640.950806 578.936768 643.416016 589 647.004272 C 596.974976 649.847961 607.728333 653.301392 612.896362 654.678467 L 629.396362 658.483032 C 633.303345 659.198364 641.674988 659.825684 648 659.877075 Z M 316.973389 593.014282 C 317.968872 592.481445 320.140381 589.672852 321.798981 586.772827 C 323.457581 583.872742 327.443817 578.948608 330.657288 575.8302 C 333.870789 572.711792 339.200012 568.609558 342.5 566.714172 L 376.5 550.310547 C 381.450012 547.835327 389.780457 542.974731 395.012115 539.509277 C 400.667145 535.763428 407.802338 529.793945 412.608398 524.787781 C 417.054688 520.156433 422.598083 513.159668 424.927063 509.239441 C 427.256042 505.319183 430.306122 498.824066 431.705048 494.805847 C 433.103943 490.787628 434.825653 484.183044 435.531036 480.128906 C 436.23642 476.074829 437.465576 472.105835 438.262482 471.30896 C 439.527679 470.043762 440.458679 470.384705 445.605682 473.998352 C 451.5 478.136658 451.5 478.136658 451.818298 475.002136 C 452.038879 472.829773 450.540222 468.490112 446.93573 460.864014 C 442.066315 450.561646 441.771057 449.498474 442.302765 444.180237 L 449.155182 405.5 C 450.335602 399.450012 452.137207 392.214294 453.158691 389.420654 C 454.180206 386.627014 456.673798 382.404541 458.699982 380.037415 C 460.934875 377.426453 464.766937 374.60614 468.441986 372.867554 C 473.186615 370.622925 475.90921 370.003418 481 370.010193 C 486.380005 370.017273 488.399078 370.534424 492.717926 373.011292 C 496.162537 374.986816 499.676331 378.29718 503.057129 382.751892 C 505.87384 386.463379 510.130188 393.549988 512.515686 398.5 C 514.901184 403.450012 518.255371 412.674988 519.969421 419 C 521.683472 425.325012 524.219055 433.424988 525.604004 437 C 526.989014 440.575012 529.65332 445.608948 531.52478 448.186584 C 533.396179 450.76416 537.081177 454.13916 539.713684 455.686584 C 543.832703 458.107727 545.545654 458.495667 552 458.468933 C 557.566467 458.445862 560.796936 457.858398 564.53064 456.190186 C 569.561218 453.942444 569.561218 453.942444 571.327087 445.221252 L 575.643921 428 C 577.046936 423.325012 579.670105 416.295166 581.473145 412.378113 C 583.276245 408.46106 586.548767 402.611084 588.745483 399.378113 C 590.942139 396.145142 594.851196 391.152588 597.432251 388.283508 C 600.013306 385.41449 606.37677 379.885315 611.573303 375.996582 C 616.769897 372.107788 622.116699 367.191284 623.455139 365.071045 C 624.79364 362.950806 626.647644 358.895691 627.575256 356.059692 C 628.777588 352.383728 629.112 348.979309 628.740051 344.20166 C 628.357544 339.288879 625.497131 329.491943 618.024414 307.5 C 611.425232 288.078918 607.642029 275.373108 607.295898 271.468567 C 606.811279 266.001099 607.008362 265.143494 609.404053 262.296448 C 611.308777 260.032776 613.450317 258.854675 617.072632 258.07782 C 619.836792 257.485046 626.031738 257 630.839111 257 C 635.646484 257 642.156921 257.671265 645.306702 258.491638 C 648.456482 259.312073 653.298035 261.130798 656.065674 262.533264 C 659.040161 264.040588 666.471985 270.239502 674.240662 277.693237 C 687.383545 290.303162 687.383545 290.303162 690.126038 287.018066 C 691.63446 285.211243 693.854675 281.440735 695.059937 278.639099 C 696.265137 275.837463 697.921936 269.710022 698.741638 265.022644 C 699.789429 259.030945 700.046143 253.346313 699.606201 245.880493 L 697.935425 229.380493 C 697.360657 226.14624 695.759094 220.484253 694.376282 216.798401 C 692.993469 213.112488 690.17218 207.487488 688.10675 204.298401 C 686.041321 201.109253 681.775146 196.150391 678.626465 193.278687 C 675.477783 190.406982 668.536255 185.618042 663.200806 182.636719 L 642.259827 171.966064 C 631.019592 166.716003 631.019592 166.716003 623.458008 170.554077 C 615.896484 174.392151 615.896484 174.392151 608.198242 173.248596 L 580.5 168.149109 C 569.5 165.973328 550.825012 161.705505 539 158.6651 C 527.174988 155.624756 512.422058 152.431274 506.215607 151.568604 C 499.464264 150.630127 488.216461 150.019714 478.215607 150.049072 L 447.863068 150.929932 C 438.419525 151.50592 432.230927 152.425659 427.737732 153.920898 C 424.169128 155.108459 418.809021 157.549561 415.826416 159.345581 C 412.843781 161.141663 406.375183 166.031189 401.451721 170.211243 C 396.52829 174.391296 388 180.815125 382.5 184.48645 C 377 188.157715 367.297913 193.712708 360.939789 196.83075 L 341.025848 206.422302 C 335.128296 209.191406 330.645966 212.256042 325.780823 216.845581 C 321.867401 220.537292 316.79892 226.743591 314.051605 231.207825 C 311.390778 235.531494 308.038544 242.766052 306.602234 247.284546 C 305.165894 251.80304 301.042053 269.674988 297.438141 287 L 286.978485 337.5 C 284.82959 347.950012 282.612915 361.378113 282.052521 367.340271 C 281.383392 374.459412 281.363892 381.324829 281.995728 387.340271 C 282.524872 392.378113 286.080811 412.700012 289.897797 432.5 L 304.983887 510 C 309.464264 532.825012 313.356323 554.424988 313.632904 558 C 313.961487 562.247192 313.616547 566.23291 312.637695 569.5 L 309.913849 578.560425 C 309.239624 580.79364 308.983093 583.796509 309.343719 585.233337 C 309.704346 586.670227 311.161316 589.226685 312.581421 590.914429 C 314.63681 593.357056 315.532562 593.785339 316.973389 593.014282 Z M 681.767212 581.525513 C 684.114197 581.254883 687.322205 580.367676 688.896057 579.553711 C 690.46991 578.739868 692.029602 577.365295 692.361938 576.499146 C 692.719116 575.568481 692.334351 574.681763 691.421326 574.331421 C 690.571533 574.005371 685.516663 573.96936 680.188171 574.251587 C 674.85968 574.533691 669.693481 575.097961 668.707764 575.505493 C 667.721985 575.912964 667.076721 576.753479 667.273743 577.373169 C 667.470825 577.99292 669.852356 579.291382 672.56604 580.258667 C 675.677856 581.36792 679.075928 581.835754 681.767212 581.525513 Z M 713.202942 523.897644 C 715.239563 523.953979 718.052063 523.477783 719.452942 522.839478 C 720.853821 522.201172 722 521.371826 722 520.996338 C 722 520.620972 718.287476 519.289063 713.75 518.036743 C 709.212524 516.784363 702.636475 515.523071 699.136658 515.233826 C 693.046753 514.730591 692.818604 514.79248 693.825928 516.674683 C 694.404846 517.756409 696.659119 519.444397 698.835449 520.425781 L 706.14624 523.002686 L 713.202942 523.897644 Z M 493.133362 463.823425 C 497.167236 463.977173 497.844757 463.708862 498.36972 461.75 L 498.986359 455.256287 C 498.998474 451.484009 498.577179 450.70636 495.194 448.256287 L 489.074829 443.964905 C 486.761597 442.429749 486.761597 442.429749 490.955139 434.089233 C 493.606781 428.815369 494.799011 425.398987 494.197693 424.797668 C 493.596344 424.19635 490.984344 424.988708 487.09375 426.952698 C 483.709656 428.66095 479.18045 431.649048 477.028839 433.592896 C 474.877258 435.536743 472.352997 439.127319 471.419373 441.571899 C 470.194 444.780518 469.88504 447.597168 470.308441 451.699524 C 470.640045 454.912415 471.72226 458.494507 472.798401 459.941162 C 474.421875 462.123657 475.716461 462.584351 481.600922 463.073425 L 493.133362 463.823425 Z M 683.096375 439.956116 L 695.846375 439.350281 C 705 438.7005 705 438.7005 705 435.751404 C 705 434.129395 705.742859 431.236755 706.650818 429.323364 C 707.558838 427.409851 711.412415 423.362488 715.215027 420.32843 C 719.017334 417.294617 722.649963 413.667542 723.287537 412.26825 C 724.353516 409.92865 724.109192 409.424561 720.249451 405.999329 C 717.940918 403.950684 714.003723 401.700989 711.500122 401.000061 C 708.795776 400.242859 704.668335 399.960815 701.331604 400.305237 C 698.242554 400.624023 695.255554 401.344421 694.693909 401.906067 C 693.999023 402.600952 694.988098 404.615295 697.78949 408.21051 C 700.05365 411.116333 701.589783 413.767029 701.203125 414.100891 L 682.740479 422.57782 C 664.980957 430.447632 664.980957 430.447632 668.314514 433.781189 C 670.147949 435.614563 673.414673 437.744141 675.573975 438.513428 C 677.733276 439.282776 681.118347 439.931946 683.096375 439.956116 Z M 490.782104 412.99054 C 492.037292 412.995728 494.512299 412.378662 496.282104 411.619263 C 498.051941 410.859802 501.019409 408.642212 502.876465 406.691162 C 505.450165 403.987183 506.110748 402.577393 505.654938 400.76123 C 505.326019 399.450867 503.734131 396.552612 502.117401 394.32074 C 500.500641 392.088867 497.90033 389.361389 496.338928 388.259644 L 488.444763 383.710083 C 485.664398 382.30957 481.799652 380.865417 479.856415 380.500916 C 477.621338 380.081604 475.053558 380.368591 472.867126 381.282166 C 470.966217 382.076416 467.491089 384.907288 465.144623 387.573059 C 460.878326 392.4198 460.878326 392.4198 465.76712 394.577393 C 468.958832 395.985962 472.364532 398.719299 475.577942 402.451172 C 478.285095 405.595093 482.299988 409.250488 484.5 410.574219 C 486.700012 411.89801 489.526947 412.985352 490.782104 412.99054 Z"/>
    <path id="Oval" fill="none" stroke="#ffffff" stroke-width="10" stroke-linecap="round" stroke-linejoin="round" d="M 970 499.5 C 970 240.202332 759.797668 30 500.5 30 C 241.202316 30 31 240.202332 31 499.5 C 31 758.797668 241.202316 969 500.5 969 C 759.797668 969 970 758.797668 970 499.5 Z"/>
</svg>
