<?xml version="1.0" encoding="UTF-8"?>
<!-- Generated by Pixelmator Pro 3.6.18 -->
<svg width="640" height="705" viewBox="0 0 640 705" xmlns="http://www.w3.org/2000/svg">
    <g id="g1">
        <path id="path1" fill="#000000" stroke="none" d="M 304.933319 5.533325 C 296.933319 8.466675 255.866669 31.93335 132.666672 104.06665 C 18.266666 170.866638 19.6 170.06665 8 191.133362 L 2.266667 201.533325 L 2.133333 355.533325 L 2 509.666687 L 5.066667 518.200012 C 8.933333 529 15.866667 539.533325 23.066668 545.799988 C 26.133333 548.333313 34.666668 554.200012 42 558.599976 C 49.333332 563.133301 80.800003 583 112 602.866699 C 210.399994 665.266663 244.53334 684.466675 276 694.866638 C 328.533325 712.333313 371.866669 703.666687 445.333344 661 C 489.600006 635.133301 611.06665 553.799988 622.133362 542.599976 C 630.133362 534.333313 636.799988 522.06665 638.666687 511.799988 C 640.266663 503.133331 640.400024 222.733337 638.799988 207.266663 C 636.400024 184.599976 625.333313 171.266663 593.200012 152.06665 C 539.06665 120.06665 361.733337 17.133362 349.733337 10.733337 L 336 3.666687 L 323.066681 3.666687 C 315.600006 3.799988 307.866669 4.599976 304.933319 5.533325 Z M 327.733337 84.866638 C 331.466675 86.733337 333.733337 89.400024 336.533325 94.866638 C 340.666656 102.866638 340.533325 104.200012 334.799988 113.133362 C 331.600006 118.333313 330.133331 119.266663 324.133331 120.733337 C 318 122.06665 316.799988 122.06665 311.600006 119.533325 C 303.466675 115.533325 299.200012 107.799988 300.533325 98.866638 C 302.399994 85.133362 315.333344 78.466675 327.733337 84.866638 Z M 300.933319 152.333313 C 304.533325 154.733337 306.666656 159.400024 306.666656 165.266663 C 306.666656 168.06665 305.333344 170.599976 302 173.93335 C 297.600006 178.333313 296.799988 178.599976 291.200012 177.93335 C 279.600006 176.733337 274.133331 167 279.333344 157 C 283.333344 149.266663 293.066681 147.266663 300.933319 152.333313 Z M 354.533325 183 C 356.799988 185.666687 358.666656 188.733337 358.666656 189.799988 C 358.666656 195.799988 350.666656 203.666656 344.666656 203.666656 C 340.533325 203.666656 334.933319 199.666656 333.600006 195.799988 C 330.533325 187.266663 336.933319 178.466675 346.133331 178.333313 C 349.333344 178.333313 351.466675 179.533325 354.533325 183 Z M 388.666656 225.666656 C 394.799988 231.666656 392 241.266663 383.600006 243 C 373.600006 245 374.399994 241.133331 374.933319 281.399994 L 375.333344 317.666656 L 381.200012 328.200012 C 384.399994 334.066681 406.933319 373.266663 431.333344 415.533325 C 455.733337 457.799988 477.200012 495.399994 479.200012 499.266663 C 482 505 482.666656 508.06665 482.666656 516.599976 C 482.666656 529.93335 479.066681 538.200012 470 545.666687 C 462.133331 552.06665 438.933319 566.06665 425.733337 572.466675 L 416.133331 577.133301 L 319.600006 576.733337 L 223.199997 576.333313 L 214.53334 571.93335 C 198.266663 563.400024 174.266663 548.333313 169.600006 543.666687 C 167.066666 541.133301 163.46666 535.799988 161.600006 531.799988 C 158.800003 525.666687 158.399994 523.400024 158.933334 515 C 159.600006 505.799988 160.266663 504.06665 170 486.06665 C 175.733337 475.533325 195.866669 440.333344 214.666672 407.666656 C 233.46666 375 252.800003 341.399994 257.466675 333 L 266 317.799988 L 266 281.666656 L 266 245.666656 L 259.466675 243.533325 C 251.866669 241 249.333328 238.200012 249.333328 232.466675 C 249.46666 222.333344 248.399994 222.466675 321.066681 222.333344 L 385.466675 222.333344 L 388.666656 225.666656 Z"/>
    </g>
    <text id="-" xml:space="preserve" x="251" y="501" font-family="Helvetica" font-size="144" font-weight="700" fill="#000000">{ }</text>
</svg>
